<svg xmlns="http://www.w3.org/2000/svg" width="1384" height="732" viewBox="0 0 1384 732"><rect width="1384" height="732" fill="white"/><text x="692.0" y="30.0" font-family="Times New Roman" font-size="20" text-anchor="middle" fill="#1B1F24" font-weight="bold">HRM System – Project Schedule (Gantt Chart)</text><text x="692.0" y="50.0" font-family="Times New Roman" font-size="13" text-anchor="middle" fill="#5C6470" font-style="italic">One developer · 13 weeks · Agile sprints</text><rect x="330.0" y="56" width="338.0" height="18" fill="#F1F3EF" stroke="#D6DAD3"/><text x="499.0" y="69.0" font-family="Times New Roman" font-size="12" text-anchor="middle" fill="#1B1F24" font-weight="bold">Month 1</text><rect x="668.0" y="56" width="338.0" height="18" fill="#F1F3EF" stroke="#D6DAD3"/><text x="837.0" y="69.0" font-family="Times New Roman" font-size="12" text-anchor="middle" fill="#1B1F24" font-weight="bold">Month 2</text><rect x="1006.0" y="56" width="338.0" height="18" fill="#F1F3EF" stroke="#D6DAD3"/><text x="1175.0" y="69.0" font-family="Times New Roman" font-size="12" text-anchor="middle" fill="#1B1F24" font-weight="bold">Month 3</text><rect x="330.0" y="74" width="78" height="22" fill="white" stroke="#D6DAD3"/><text x="369.0" y="89.0" font-family="Times New Roman" font-size="12" text-anchor="middle" fill="#5C6470">W1</text><rect x="408.0" y="74" width="78" height="22" fill="white" stroke="#D6DAD3"/><text x="447.0" y="89.0" font-family="Times New Roman" font-size="12" text-anchor="middle" fill="#5C6470">W2</text><rect x="486.0" y="74" width="78" height="22" fill="white" stroke="#D6DAD3"/><text x="525.0" y="89.0" font-family="Times New Roman" font-size="12" text-anchor="middle" fill="#5C6470">W3</text><rect x="564.0" y="74" width="78" height="22" fill="white" stroke="#D6DAD3"/><text x="603.0" y="89.0" font-family="Times New Roman" font-size="12" text-anchor="middle" fill="#5C6470">W4</text><rect x="642.0" y="74" width="78" height="22" fill="white" stroke="#D6DAD3"/><text x="681.0" y="89.0" font-family="Times New Roman" font-size="12" text-anchor="middle" fill="#5C6470">W5</text><rect x="720.0" y="74" width="78" height="22" fill="white" stroke="#D6DAD3"/><text x="759.0" y="89.0" font-family="Times New Roman" font-size="12" text-anchor="middle" fill="#5C6470">W6</text><rect x="798.0" y="74" width="78" height="22" fill="white" stroke="#D6DAD3"/><text x="837.0" y="89.0" font-family="Times New Roman" font-size="12" text-anchor="middle" fill="#5C6470">W7</text><rect x="876.0" y="74" width="78" height="22" fill="white" stroke="#D6DAD3"/><text x="915.0" y="89.0" font-family="Times New Roman" font-size="12" text-anchor="middle" fill="#5C6470">W8</text><rect x="954.0" y="74" width="78" height="22" fill="white" stroke="#D6DAD3"/><text x="993.0" y="89.0" font-family="Times New Roman" font-size="12" text-anchor="middle" fill="#5C6470">W9</text><rect x="1032.0" y="74" width="78" height="22" fill="white" stroke="#D6DAD3"/><text x="1071.0" y="89.0" font-family="Times New Roman" font-size="12" text-anchor="middle" fill="#5C6470">W10</text><rect x="1110.0" y="74" width="78" height="22" fill="white" stroke="#D6DAD3"/><text x="1149.0" y="89.0" font-family="Times New Roman" font-size="12" text-anchor="middle" fill="#5C6470">W11</text><rect x="1188.0" y="74" width="78" height="22" fill="white" stroke="#D6DAD3"/><text x="1227.0" y="89.0" font-family="Times New Roman" font-size="12" text-anchor="middle" fill="#5C6470">W12</text><rect x="1266.0" y="74" width="78" height="22" fill="white" stroke="#D6DAD3"/><text x="1305.0" y="89.0" font-family="Times New Roman" font-size="12" text-anchor="middle" fill="#5C6470">W13</text><text x="318.0" y="89.0" font-family="Times New Roman" font-size="12" text-anchor="end" fill="#1B1F24" font-weight="bold">Task</text><line x1="330.0" y1="96" x2="330.0" y2="672" stroke="#D6DAD3" stroke-width="1"/><line x1="408.0" y1="96" x2="408.0" y2="672" stroke="#D6DAD3" stroke-width="1"/><line x1="486.0" y1="96" x2="486.0" y2="672" stroke="#D6DAD3" stroke-width="1"/><line x1="564.0" y1="96" x2="564.0" y2="672" stroke="#D6DAD3" stroke-width="1"/><line x1="642.0" y1="96" x2="642.0" y2="672" stroke="#D6DAD3" stroke-width="1"/><line x1="720.0" y1="96" x2="720.0" y2="672" stroke="#D6DAD3" stroke-width="1"/><line x1="798.0" y1="96" x2="798.0" y2="672" stroke="#D6DAD3" stroke-width="1"/><line x1="876.0" y1="96" x2="876.0" y2="672" stroke="#D6DAD3" stroke-width="1"/><line x1="954.0" y1="96" x2="954.0" y2="672" stroke="#D6DAD3" stroke-width="1"/><line x1="1032.0" y1="96" x2="1032.0" y2="672" stroke="#D6DAD3" stroke-width="1"/><line x1="1110.0" y1="96" x2="1110.0" y2="672" stroke="#D6DAD3" stroke-width="1"/><line x1="1188.0" y1="96" x2="1188.0" y2="672" stroke="#D6DAD3" stroke-width="1"/><line x1="1266.0" y1="96" x2="1266.0" y2="672" stroke="#D6DAD3" stroke-width="1"/><line x1="1344.0" y1="96" x2="1344.0" y2="672" stroke="#D6DAD3" stroke-width="1"/><rect x="20" y="96" width="1344" height="26" fill="#F1F3EF"/><text x="28.0" y="113.0" font-family="Times New Roman" font-size="13" text-anchor="start" fill="#1B1F24" font-weight="bold">Sprint 0 · Foundation</text><line x1="20" y1="152" x2="1364" y2="152" stroke="#D6DAD3" stroke-width="0.8"/><text x="318.0" y="141.0" font-family="Times New Roman" font-size="12.5" text-anchor="end" fill="#1B1F24">Requirement analysis and product backlog</text><rect x="330.0" y="129" width="78.0" height="16" rx="3" fill="#245F73"/><text x="369.0" y="141.0" font-family="Times New Roman" font-size="10.5" text-anchor="middle" fill="#FFFFFF">1 wk</text><line x1="20" y1="182" x2="1364" y2="182" stroke="#D6DAD3" stroke-width="0.8"/><text x="318.0" y="171.0" font-family="Times New Roman" font-size="12.5" text-anchor="end" fill="#1B1F24">Clean Architecture skeleton and database schema</text><rect x="369.0" y="159" width="117.0" height="16" rx="3" fill="#245F73"/><text x="427.5" y="171.0" font-family="Times New Roman" font-size="10.5" text-anchor="middle" fill="#FFFFFF">1.5 wk</text><rect x="20" y="182" width="1344" height="26" fill="#F1F3EF"/><text x="28.0" y="199.0" font-family="Times New Roman" font-size="13" text-anchor="start" fill="#1B1F24" font-weight="bold">Sprint 1 · Security and organization</text><line x1="20" y1="238" x2="1364" y2="238" stroke="#D6DAD3" stroke-width="0.8"/><text x="318.0" y="227.0" font-family="Times New Roman" font-size="12.5" text-anchor="end" fill="#1B1F24">JWT authentication with refresh-token cookies</text><rect x="486.0" y="215" width="78.0" height="16" rx="3" fill="#245F73"/><text x="525.0" y="227.0" font-family="Times New Roman" font-size="10.5" text-anchor="middle" fill="#FFFFFF">1 wk</text><line x1="20" y1="268" x2="1364" y2="268" stroke="#D6DAD3" stroke-width="0.8"/><text x="318.0" y="257.0" font-family="Times New Roman" font-size="12.5" text-anchor="end" fill="#1B1F24">Company, role and department management</text><rect x="525.0" y="245" width="117.0" height="16" rx="3" fill="#245F73"/><text x="583.5" y="257.0" font-family="Times New Roman" font-size="10.5" text-anchor="middle" fill="#FFFFFF">1.5 wk</text><rect x="20" y="268" width="1344" height="26" fill="#F1F3EF"/><text x="28.0" y="285.0" font-family="Times New Roman" font-size="13" text-anchor="start" fill="#1B1F24" font-weight="bold">Sprint 2 · Employees</text><line x1="20" y1="324" x2="1364" y2="324" stroke="#D6DAD3" stroke-width="0.8"/><text x="318.0" y="313.0" font-family="Times New Roman" font-size="12.5" text-anchor="end" fill="#1B1F24">Employee management with pagination</text><rect x="642.0" y="301" width="117.0" height="16" rx="3" fill="#245F73"/><text x="700.5" y="313.0" font-family="Times New Roman" font-size="10.5" text-anchor="middle" fill="#FFFFFF">1.5 wk</text><line x1="20" y1="354" x2="1364" y2="354" stroke="#D6DAD3" stroke-width="0.8"/><text x="318.0" y="343.0" font-family="Times New Roman" font-size="12.5" text-anchor="end" fill="#1B1F24">Swagger bearer security and API documentation</text><rect x="720.0" y="331" width="78.0" height="16" rx="3" fill="#245F73"/><text x="759.0" y="343.0" font-family="Times New Roman" font-size="10.5" text-anchor="middle" fill="#FFFFFF">1 wk</text><rect x="20" y="354" width="1344" height="26" fill="#F1F3EF"/><text x="28.0" y="371.0" font-family="Times New Roman" font-size="13" text-anchor="start" fill="#1B1F24" font-weight="bold">Sprint 3 · Attendance and leave</text><line x1="20" y1="410" x2="1364" y2="410" stroke="#D6DAD3" stroke-width="0.8"/><text x="318.0" y="399.0" font-family="Times New Roman" font-size="12.5" text-anchor="end" fill="#1B1F24">Check-in / check-out and attendance summaries</text><rect x="798.0" y="387" width="117.0" height="16" rx="3" fill="#245F73"/><text x="856.5" y="399.0" font-family="Times New Roman" font-size="10.5" text-anchor="middle" fill="#FFFFFF">1.5 wk</text><line x1="20" y1="440" x2="1364" y2="440" stroke="#D6DAD3" stroke-width="0.8"/><text x="318.0" y="429.0" font-family="Times New Roman" font-size="12.5" text-anchor="end" fill="#1B1F24">Automatic absent-marking job (09:30, catch-up)</text><rect x="876.0" y="417" width="78.0" height="16" rx="3" fill="#245F73"/><text x="915.0" y="429.0" font-family="Times New Roman" font-size="10.5" text-anchor="middle" fill="#FFFFFF">1 wk</text><line x1="20" y1="470" x2="1364" y2="470" stroke="#D6DAD3" stroke-width="0.8"/><text x="318.0" y="459.0" font-family="Times New Roman" font-size="12.5" text-anchor="end" fill="#1B1F24">Leave request, approval and On-Leave attendance</text><rect x="915.0" y="447" width="117.0" height="16" rx="3" fill="#245F73"/><text x="973.5" y="459.0" font-family="Times New Roman" font-size="10.5" text-anchor="middle" fill="#FFFFFF">1.5 wk</text><rect x="20" y="470" width="1344" height="26" fill="#F1F3EF"/><text x="28.0" y="487.0" font-family="Times New Roman" font-size="13" text-anchor="start" fill="#1B1F24" font-weight="bold">Sprint 4 · Payroll and AI</text><line x1="20" y1="526" x2="1364" y2="526" stroke="#D6DAD3" stroke-width="0.8"/><text x="318.0" y="515.0" font-family="Times New Roman" font-size="12.5" text-anchor="end" fill="#1B1F24">Monthly payroll job and live payroll status</text><rect x="1032.0" y="503" width="117.0" height="16" rx="3" fill="#245F73"/><text x="1090.5" y="515.0" font-family="Times New Roman" font-size="10.5" text-anchor="middle" fill="#FFFFFF">1.5 wk</text><line x1="20" y1="556" x2="1364" y2="556" stroke="#D6DAD3" stroke-width="0.8"/><text x="318.0" y="545.0" font-family="Times New Roman" font-size="12.5" text-anchor="end" fill="#1B1F24">AI HR assistant (LLM tool calling)</text><rect x="1071.0" y="533" width="117.0" height="16" rx="3" fill="#245F73"/><text x="1129.5" y="545.0" font-family="Times New Roman" font-size="10.5" text-anchor="middle" fill="#FFFFFF">1.5 wk</text><rect x="20" y="556" width="1344" height="26" fill="#F1F3EF"/><text x="28.0" y="573.0" font-family="Times New Roman" font-size="13" text-anchor="start" fill="#1B1F24" font-weight="bold">Final · Integration and delivery</text><line x1="20" y1="612" x2="1364" y2="612" stroke="#D6DAD3" stroke-width="0.8"/><text x="318.0" y="601.0" font-family="Times New Roman" font-size="12.5" text-anchor="end" fill="#1B1F24">Angular integration</text><rect x="1188.0" y="589" width="117.0" height="16" rx="3" fill="#245F73"/><text x="1246.5" y="601.0" font-family="Times New Roman" font-size="10.5" text-anchor="middle" fill="#FFFFFF">1.5 wk</text><line x1="20" y1="642" x2="1364" y2="642" stroke="#D6DAD3" stroke-width="0.8"/><text x="318.0" y="631.0" font-family="Times New Roman" font-size="12.5" text-anchor="end" fill="#1B1F24">Testing, bug fixing and defect verification</text><rect x="1227.0" y="619" width="117.0" height="16" rx="3" fill="#245F73"/><text x="1285.5" y="631.0" font-family="Times New Roman" font-size="10.5" text-anchor="middle" fill="#FFFFFF">1.5 wk</text><line x1="20" y1="672" x2="1364" y2="672" stroke="#D6DAD3" stroke-width="0.8"/><text x="318.0" y="661.0" font-family="Times New Roman" font-size="12.5" text-anchor="end" fill="#1B1F24">Documentation, report and defense preparation</text><rect x="1266.0" y="649" width="78.0" height="16" rx="3" fill="#245F73"/><text x="1305.0" y="661.0" font-family="Times New Roman" font-size="10.5" text-anchor="middle" fill="#FFFFFF">1 wk</text><line x1="642.0" y1="96" x2="642.0" y2="672" stroke="#B5541C" stroke-width="1.2" stroke-dasharray="5 4"/><polygon points="642.0,676 649.0,683 642.0,690 635.0,683" fill="#B5541C"/><text x="642.0" y="706.0" font-family="Times New Roman" font-size="11.5" text-anchor="middle" fill="#B5541C">Auth & org demo</text><line x1="1032.0" y1="96" x2="1032.0" y2="672" stroke="#B5541C" stroke-width="1.2" stroke-dasharray="5 4"/><polygon points="1032.0,676 1039.0,683 1032.0,690 1025.0,683" fill="#B5541C"/><text x="1032.0" y="706.0" font-family="Times New Roman" font-size="11.5" text-anchor="middle" fill="#B5541C">Attendance & leave demo</text><line x1="1344.0" y1="96" x2="1344.0" y2="672" stroke="#B5541C" stroke-width="1.2" stroke-dasharray="5 4"/><polygon points="1344.0,676 1351.0,683 1344.0,690 1337.0,683" fill="#B5541C"/><text x="1334.0" y="706.0" font-family="Times New Roman" font-size="11.5" text-anchor="end" fill="#B5541C">Final delivery</text><rect x="330" y="712" width="26" height="12" rx="3" fill="#245F73"/><text x="364.0" y="722.0" font-family="Times New Roman" font-size="11.5" text-anchor="start" fill="#1B1F24">Task duration (bars overlap where work ran in parallel)</text><polygon points="736,711 742,717 736,723 730,717" fill="#B5541C"/><text x="752.0" y="722.0" font-family="Times New Roman" font-size="11.5" text-anchor="start" fill="#1B1F24">Milestone / increment demonstration</text></svg>